<svg width="20" height="20" viewBox="0 0 20 20" fill="none" xmlns="http://www.w3.org/2000/svg">
<path fill-rule="evenodd" clip-rule="evenodd" d="M9.48846 1.00885C9.78939 0.7748 10.2108 0.7748 10.5117 1.00885L18.0117 6.84219C18.2147 7.00007 18.3334 7.24282 18.3334 7.49998V16.6666C18.3334 17.3297 18.07 17.9656 17.6012 18.4344C17.1323 18.9033 16.4965 19.1666 15.8334 19.1666H4.16675C3.50371 19.1666 2.86782 18.9033 2.39898 18.4344C1.93014 17.9656 1.66675 17.3297 1.66675 16.6666V7.49998C1.66675 7.24282 1.78548 7.00007 1.98846 6.84219L9.48846 1.00885ZM3.33341 7.90755V16.6666C3.33341 16.8877 3.42121 17.0996 3.57749 17.2559C3.73377 17.4122 3.94573 17.5 4.16675 17.5H15.8334C16.0544 17.5 16.2664 17.4122 16.4227 17.2559C16.5789 17.0996 16.6667 16.8877 16.6667 16.6666V7.90755L10.0001 2.72236L3.33341 7.90755Z" fill="black"/>
<path fill-rule="evenodd" clip-rule="evenodd" d="M6.66675 10C6.66675 9.53978 7.03984 9.16669 7.50008 9.16669H12.5001C12.9603 9.16669 13.3334 9.53978 13.3334 10V18.3334C13.3334 18.7936 12.9603 19.1667 12.5001 19.1667C12.0398 19.1667 11.6667 18.7936 11.6667 18.3334V10.8334H8.33341V18.3334C8.33341 18.7936 7.96032 19.1667 7.50008 19.1667C7.03984 19.1667 6.66675 18.7936 6.66675 18.3334V10Z" fill="black"/>
</svg>
